[img]http://www.shotpix.com/images/44663617507488027387.gif[/img]




[code]Complete name                            : 2IN1_HOT &SEXY_ENJOYING IN DIFFERENT STYLE
Format                                   : MPEG-4
Format profile                           : Base Media
Codec ID                                 : isom
File size                                : 162 MiB
Duration                                 : 17mn 3s
Overall bit rate mode                    : Variable
Overall bit rate                         : 1 330 Kbps
Writing application                      : Lavf53.24.2[/code]


[img]http://www.shotpix.com/images/34235854661596452485.gif[/img]



[code]ID                                       : 1
Format                                   : AVC
Format/Info                              : Advanced Video Codec
Format profile                           : Main@L3.1
Format settings, CABAC                   : Yes
Format settings, ReFrames                : 2 frames
Codec ID                                 : avc1
Codec ID/Info                            : Advanced Video Coding
Duration                                 : 17mn 3s
Source duration                          : 17mn 2s
Bit rate                                 : 1 305 Kbps
Width                                    : 960 pixels
Height                                   : 544 pixels
Display aspect ratio                     : 16:9
Original display aspect ratio            : 16:9
Frame rate mode                          : Variable
Frame rate                               : 19.980 fps
Minimum frame rate                       : 9.990 fps
Maximum frame rate                       : 999.000 fps
Color space                              : YUV
Chroma subsampling                       : 4:2:0
Bit depth                                : 8 bits
Scan type                                : Progressive
Bits/(Pixel*Frame)                       : 0.125
Stream size                              : 155 MiB (95%)
Source stream size                       : 155 MiB (95%)
Writing library                          : x264 core 107[/code]


[img]http://www.shotpix.com/images/54760780871226007874.gif[/img]



[code]ID                                       : 2
Format                                   : AAC
Format/Info                              : Advanced Audio Codec
Format profile                           : LC
Codec ID                                 : 40
Duration                                 : 17mn 2s
Bit rate mode                            : Variable
Bit rate                                 : 53.6 Kbps
Maximum bit rate                         : 60.7 Kbps
Channel(s)                               : 2 channels
Channel positions                        : Front: L R
Sampling rate                            : 44.1 KHz
Compression mode                         : Lossy
Stream size                              : 6.53 MiB (4%)[/code]

[img]http://www.shotpix.com/images/50894759808379845433.gif[/img]





[img]http://www.shotpix.com/images/18117427819366040396.png[/img]






[img]http://www.shotpix.com/images/37530658244654420663.jpg[/img]




[img]http://www.shotpix.com/images/58829411693773444709.gif[/img]
